<mxfile host="app.diagrams.net" modified="2024-03-06T16:02:24.669Z" agent="Mozilla/5.0 (Windows NT 10.0; Win64; x64) AppleWebKit/537.36 (KHTML, like Gecko) Chrome/122.0.0.0 Safari/537.36" etag="ge4Tp8TayiB_fC_940Yz" version="24.0.2" type="github">
  <diagram name="Page-1" id="Jfx3OaxBmfA74BWr6Pos">
    <mxGraphModel dx="794" dy="430" grid="1" gridSize="10" guides="1" tooltips="1" connect="1" arrows="1" fold="1" page="1" pageScale="1" pageWidth="850" pageHeight="1100" background="#e15656" math="0" shadow="0">
      <root>
        <mxCell id="0" />
        <mxCell id="1" parent="0" />
        <mxCell id="_gN_QdEzsvX38dvCNEiP-1" value="" style="image;aspect=fixed;perimeter=ellipsePerimeter;html=1;align=center;shadow=0;dashed=0;spacingTop=3;image=img/lib/active_directory/generic_server.svg;" vertex="1" parent="1">
          <mxGeometry x="212.39999999999998" y="95" width="47.6" height="85" as="geometry" />
        </mxCell>
        <mxCell id="_gN_QdEzsvX38dvCNEiP-11" style="edgeStyle=orthogonalEdgeStyle;rounded=0;orthogonalLoop=1;jettySize=auto;html=1;exitX=1;exitY=0.5;exitDx=0;exitDy=0;entryX=0;entryY=0.5;entryDx=0;entryDy=0;" edge="1" parent="1" source="_gN_QdEzsvX38dvCNEiP-2" target="_gN_QdEzsvX38dvCNEiP-4">
          <mxGeometry relative="1" as="geometry" />
        </mxCell>
        <mxCell id="_gN_QdEzsvX38dvCNEiP-2" value="Frontend" style="rounded=0;whiteSpace=wrap;html=1;" vertex="1" parent="1">
          <mxGeometry x="250" y="105" width="120" height="60" as="geometry" />
        </mxCell>
        <mxCell id="_gN_QdEzsvX38dvCNEiP-3" value="Frontend" style="rounded=0;whiteSpace=wrap;html=1;" vertex="1" parent="1">
          <mxGeometry x="610" y="102.5" width="120" height="60" as="geometry" />
        </mxCell>
        <mxCell id="_gN_QdEzsvX38dvCNEiP-4" value="" style="image;aspect=fixed;perimeter=ellipsePerimeter;html=1;align=center;shadow=0;dashed=0;spacingTop=3;image=img/lib/active_directory/generic_server.svg;" vertex="1" parent="1">
          <mxGeometry x="580" y="95" width="44.8" height="80" as="geometry" />
        </mxCell>
        <mxCell id="_gN_QdEzsvX38dvCNEiP-5" value="" style="endArrow=classic;html=1;rounded=0;" edge="1" parent="1">
          <mxGeometry width="50" height="50" relative="1" as="geometry">
            <mxPoint x="600" y="110" as="sourcePoint" />
            <mxPoint x="650" y="60" as="targetPoint" />
          </mxGeometry>
        </mxCell>
        <mxCell id="_gN_QdEzsvX38dvCNEiP-9" value="server" style="rounded=1;whiteSpace=wrap;html=1;" vertex="1" parent="1">
          <mxGeometry x="610" y="30" width="120" height="30" as="geometry" />
        </mxCell>
        <mxCell id="_gN_QdEzsvX38dvCNEiP-12" value="server" style="rounded=1;whiteSpace=wrap;html=1;" vertex="1" parent="1">
          <mxGeometry x="260" y="20" width="120" height="30" as="geometry" />
        </mxCell>
        <mxCell id="_gN_QdEzsvX38dvCNEiP-13" value="" style="endArrow=classic;html=1;rounded=0;" edge="1" parent="1">
          <mxGeometry width="50" height="50" relative="1" as="geometry">
            <mxPoint x="240" y="100" as="sourcePoint" />
            <mxPoint x="280" y="50" as="targetPoint" />
            <Array as="points">
              <mxPoint x="270" y="65" />
            </Array>
          </mxGeometry>
        </mxCell>
      </root>
    </mxGraphModel>
  </diagram>
</mxfile>
